<svg width="28" height="28" viewBox="0 0 28 28" fill="none" xmlns="http://www.w3.org/2000/svg">
<path fill-rule="evenodd" clip-rule="evenodd" d="M28 18.1974C28 23.177 23.6142 28.0478 18.7875 26.8539C15.1515 25.9546 12.8481 26.0945 9.18169 26.8611C4.38573 27.8637 0 23.2311 0 18.1974C0 13.1438 2.87118 11.3024 3.41408 10.0562C3.72448 9.34414 3.94476 8.72191 4.41775 7.96207C3.17653 6.54978 2.79705 4.96376 3.2654 3.04928L3.3151 2.89768C3.77334 1.79717 4.48682 0.362762 5.73519 0.19717C6.7018 0.0694765 7.74759 0.883464 8.27743 1.59458C8.79253 2.28538 9.34933 3.6512 9.56329 4.40698C12.3519 3.56863 15.6502 3.57134 18.4367 4.40924C18.6317 3.71889 19.2774 2.09768 19.776 1.53411C21.895 -0.862276 23.6644 0.152047 24.6849 2.89768L24.735 3.04929C25.2025 4.96153 24.8239 6.54979 23.5827 7.96165C24.7607 9.86036 23.8788 9.58467 25.3651 11.2239C27.0999 13.1366 28 15.5199 28 18.1974L28 18.1974ZM16.65 20.1394C15.7049 20.2657 14.5976 20.2991 14.0004 19.5776C13.383 20.3235 12.2201 20.2626 11.2556 20.1263C10.7801 20.0591 10.8786 19.3728 11.3613 19.4387C12.06 19.5348 13.3198 19.7198 13.6748 18.8359V17.373H14.3251V18.8345C14.6726 19.7022 15.8881 19.5384 16.5789 19.4468C17.1525 19.371 17.246 20.0595 16.65 20.1394L16.65 20.1394ZM6.39982 11.1959C4.46871 11.1959 4.46829 14.2831 6.39982 14.2831C8.33134 14.2831 8.3305 11.1959 6.39982 11.1959ZM6.85006 11.8014C6.26967 11.8014 6.26967 12.7296 6.85006 12.7296C7.43086 12.7296 7.43086 11.8014 6.85006 11.8014ZM21.6035 11.1959C23.5342 11.1959 23.5351 14.2831 21.6035 14.2831C19.672 14.2831 19.6729 11.1959 21.6035 11.1959ZM21.1529 11.8014C21.7337 11.8014 21.7337 12.7296 21.1529 12.7296C20.5725 12.7296 20.5725 11.8014 21.1529 11.8014ZM6.17913 6.067C5.19273 4.89565 5.32034 3.42786 5.77353 2.60846C5.93063 3.81049 6.30085 4.81895 6.78689 5.64693C7.36938 5.27828 8.00872 4.96379 8.68809 4.70479C8.46655 3.90795 8.14603 3.15984 7.5547 2.21274C6.10626 0.57439 5.19188 0.813984 4.15662 3.29972C3.71439 5.10818 4.23707 6.26689 4.99435 7.17562C5.3414 6.76953 5.73942 6.39998 6.17913 6.06699V6.067ZM21.8217 6.06655C22.8064 4.89295 22.6805 3.42921 22.2269 2.60846C22.0694 3.81049 21.6996 4.81849 21.214 5.64647C20.6319 5.27828 19.9921 4.96469 19.3123 4.70524C19.5339 3.9084 19.8535 3.16029 20.4453 2.21274C21.8937 0.574386 22.8081 0.81398 23.8434 3.29971C24.2856 5.10727 23.7642 6.26599 23.0069 7.17473C22.6607 6.76909 22.2627 6.39955 21.8217 6.06656V6.06655ZM14 12.7612C15.1144 12.7612 16.0183 13.5454 16.0183 14.5119C16.0183 15.4789 15.2168 16.6728 14.1024 16.6728C12.9879 16.6728 11.9817 15.4789 11.9817 14.5119C11.9817 13.5454 12.8856 12.7612 14 12.7612V12.7612ZM24.1176 24.541C26.3342 21.2363 25.3386 16.573 21.986 14.6356C24.1188 14.1573 23.7929 10.8012 21.6036 10.8012C20.8505 10.8012 20.1943 11.284 19.9138 11.982C19.0365 9.66005 16.7192 8.48373 14 8.48373C11.2822 8.48373 8.9665 9.65869 8.08834 11.9779C7.31127 10.0585 4.56434 10.6351 4.56434 12.7405C4.56434 13.6799 5.19274 14.4497 6.0153 14.6351C3.05863 16.3434 1.60597 20.8118 3.56278 23.9094C4.69786 25.7074 7.11037 26.2882 9.00482 25.892C13.0924 25.0374 15.3747 24.9963 18.9952 25.892C20.9023 26.364 22.7024 25.7453 24.1176 24.5411L24.1176 24.541Z" fill="black"/>
</svg>
