<svg width="28" height="30" viewBox="0 0 28 30" fill="none" xmlns="http://www.w3.org/2000/svg">
<path fill-rule="evenodd" clip-rule="evenodd" d="M14.0227 0.180176C21.4611 0.180176 29.7691 11.2228 27.6698 19.6235C26.1059 25.8814 20.5875 29.2703 14.0227 29.2703C7.21423 29.2703 1.53221 25.6259 0.21802 18.9162C-1.43304 10.4854 6.59793 0.180176 14.0227 0.180176ZM22.6732 16.4224C23.911 16.4224 23.911 19.0054 22.6732 19.0054C21.4358 19.0054 21.4362 16.4224 22.6732 16.4224ZM5.32761 16.4224C6.565 16.4224 6.565 19.0054 5.32761 19.0054C4.09022 19.0054 4.09022 16.4224 5.32761 16.4224ZM9.76058 20.5304C12.5244 21.613 15.2701 21.6692 17.9849 20.5277C18.2885 20.4002 18.4999 21.0091 18.1888 21.1403C15.3457 22.3389 12.4697 22.2845 9.57567 21.1508C9.21747 21.0105 9.41525 20.3951 9.76058 20.5304ZM14.0006 16.7073C16.803 16.7073 19.0756 18.3055 19.0756 20.2763C19.0756 22.2471 16.803 23.8453 14.0006 23.8453C11.1982 23.8453 8.92522 22.2471 8.92522 20.2763C8.92522 18.3055 11.1982 16.7073 14.0006 16.7073ZM14.0227 27.8733C19.2492 27.8733 24.9345 25.4572 26.4879 19.2417C27.2453 16.2112 26.4348 12.7428 24.7632 9.68627C22.8754 8.39389 21.1101 9.49381 20.5172 11.0897C19.5942 13.5735 18.7781 15.4679 17.7345 16.7941C21.9829 19.4538 19.5451 24.7765 14.0006 24.7765C8.45804 24.7765 6.01904 19.4575 10.2627 16.7964C9.21824 15.4702 8.40176 13.5748 7.47874 11.0897C6.86648 9.4426 5.00637 8.32394 3.05098 9.81793C1.57841 12.6125 0.856797 15.7504 1.4172 18.6122C2.7153 25.2401 8.56261 27.8733 14.0227 27.8733Z" fill="black"/>
</svg>
