<svg width="28" height="26" viewBox="0 0 28 26" fill="none" xmlns="http://www.w3.org/2000/svg">
<path fill-rule="evenodd" clip-rule="evenodd" d="M25.4371 10.6694C25.6029 11.187 25.736 11.7204 25.8327 12.2676C27.1447 13.5372 27.9675 15.3595 27.9675 17.384C27.9675 28.7619 1.74237 28.7619 1.74237 17.384C1.74237 15.3595 2.56486 13.5372 3.87687 12.2676C3.92521 11.9942 3.98314 11.7246 4.04874 11.4583C2.16705 12.0406 0.67359 11.8161 0.173719 10.6816C-0.648777 8.81501 1.52831 5.19182 5.03503 2.59078C9.36426 -0.61979 13.6678 -0.696291 12.9803 2.83116C13.3759 2.76051 13.7783 2.7116 14.1861 2.68609C14.4209 1.52017 15.7033 0.857993 17.7999 1.05071C21.17 1.36006 25.3692 3.76047 27.1765 6.41043C28.7735 8.75189 27.9702 10.506 25.4371 10.6695L25.4371 10.6694ZM20.7055 11.6205C21.79 11.6205 21.79 14.1513 20.7055 14.1513C19.621 14.1513 19.621 11.6205 20.7055 11.6205ZM9.42835 11.6205C10.5129 11.6205 10.5129 14.1513 9.42835 14.1513C8.34384 14.1513 8.34384 11.6205 9.42835 11.6205ZM9.42835 10.9725C10.2121 10.9725 10.8478 11.8291 10.8478 12.8859C10.8478 13.9423 10.2121 14.7993 9.42835 14.7993C8.6446 14.7993 8.00931 13.9423 8.00931 12.8859C8.00931 11.8291 8.6446 10.9725 9.42835 10.9725ZM20.7055 10.9725C21.4892 10.9725 22.1249 11.8291 22.1249 12.8859C22.1249 15.3515 19.2864 15.3515 19.2864 12.8859C19.2864 11.8291 19.9217 10.9725 20.7055 10.9725H20.7055ZM15.149 13.6597C16.4679 13.7103 17.2083 14.0573 17.2083 15.0999C17.2083 16.1425 16.5612 17.4355 15.149 17.4355C13.7369 17.4355 12.9259 16.1228 12.9259 15.0802C12.9259 14.038 13.8297 13.6091 15.149 13.6597ZM20.3407 16.9911C20.3407 14.523 17.9791 12.5214 15.0669 12.5214C12.1548 12.5214 9.79323 14.523 9.79323 16.9911C9.79323 19.4216 12.2323 21.3776 14.0082 21.1297C14.3883 21.0766 14.6665 20.8906 14.8425 20.5716L14.8456 18.6357C14.8464 18.2289 15.3505 18.2285 15.3505 18.6357V20.6678C15.5269 20.9282 15.7855 21.0825 16.1258 21.1297C17.9024 21.3772 20.3407 19.4216 20.3407 16.9911H20.3407ZM20.9644 15.3992C22.1894 18.9375 19.151 22.4328 15.0669 22.4328C11.0642 22.4328 8.02433 19.0608 9.12264 15.5426C7.44274 14.9147 5.91743 13.9937 4.6925 12.7781C3.4342 13.9958 2.63396 15.5024 2.63396 17.3841C2.63396 27.4539 27.0756 27.4531 27.0756 17.3841C27.0756 15.5066 26.2781 13.9983 25.0217 12.7822C23.8877 13.9068 22.4967 14.7784 20.9645 15.3992L20.9644 15.3992ZM26.4607 6.99024C25.3121 5.34399 23.2417 3.85868 21.1202 2.9486C22.8922 4.58858 25.1329 7.00695 24.2736 9.71838C25.7295 10.0582 28.235 9.53319 26.4607 6.99023L26.4607 6.99024ZM18.368 2.10498C17.5471 1.96368 15.6255 1.8203 15.141 2.66934C17.656 2.73623 19.9643 3.67934 21.8015 5.22024C20.9491 4.2115 19.794 3.16388 18.3681 2.10498H18.368ZM2.1049 6.86021C1.09481 8.17579 0.421544 9.54655 1.04302 10.378C1.63035 11.1903 3.57189 10.6372 4.38939 10.3212C5.64616 6.77201 8.48193 4.03382 11.9956 3.05518C12.1755 2.50127 12.2752 1.84703 11.9403 1.48208C10.6866 0.118008 6.91789 2.37001 5.53722 3.39421C4.29311 4.31641 3.03481 5.51829 2.1049 6.86021V6.86021Z" fill="black"/>
</svg>
