<svg width="55" height="42" viewBox="0 0 55 42" fill="none" xmlns="http://www.w3.org/2000/svg">
<g clip-path="url(#clip0)">
<path d="M51.9871 3.07708C50.6392 1.72274 48.8541 0.976954 46.9605 0.976954C45.0306 0.976954 43.2216 1.74757 41.8662 3.1466L40.3342 4.72801C36.407 2.09834 32.0307 0.714664 27.6087 0.714664C23.1863 0.714664 18.81 2.09834 14.8832 4.72801L13.3508 3.1466C11.9953 1.74757 10.1859 0.977406 8.25642 0.977406C6.36325 0.977406 4.57825 1.72319 3.23029 3.07798C0.422242 5.90042 0.3921 10.5241 3.16292 13.3849L5.42354 15.7184C4.01043 18.7224 3.26753 21.8279 3.26753 24.755C3.26753 35.1274 12.5946 41.5709 27.6091 41.5709C42.6232 41.5709 51.9503 35.1274 51.9503 24.755C51.9503 21.8283 51.207 18.7233 49.7934 15.7184L52.0549 13.3849C54.8253 10.5241 54.7952 5.90042 51.9871 3.07708ZM50.1604 11.4821L47.2292 14.5077C46.8218 14.9284 46.7292 15.569 47 16.0913C48.4982 18.9806 49.2899 21.9764 49.2899 24.7546C49.2899 35.1559 38.0896 38.8618 27.6083 38.8618C17.1265 38.8618 5.9262 35.1559 5.9262 24.7546C5.9262 21.9759 6.71786 18.9797 8.21564 16.0913C8.48647 15.569 8.39338 14.928 7.98647 14.5077L5.05564 11.4821C3.31451 9.68443 3.33357 6.77893 5.09775 5.00565C5.94482 4.15468 7.06626 3.68563 8.25597 3.68563C9.46873 3.68563 10.6057 4.17003 11.4576 5.04899L13.7728 7.43849C14.2333 7.91386 14.9652 7.97571 15.4971 7.58566C19.2036 4.86254 23.3915 3.42334 27.6087 3.42334C31.825 3.42334 36.0129 4.86254 39.7199 7.58566C40.2514 7.97616 40.9841 7.91386 41.4446 7.43849L43.7598 5.04899C44.6113 4.17003 45.7482 3.68563 46.961 3.68563C48.1511 3.68563 49.2726 4.15468 50.1192 5.0052C51.8834 6.77938 51.902 9.68443 50.1604 11.4821Z" fill="#080029"/>
<path d="M10.7291 18.4543C8.17549 21.055 7.68436 24.7709 9.63204 26.7541C11.5793 28.7382 15.2278 28.2375 17.7814 25.6367C20.3346 23.0364 20.8257 19.3206 18.8784 17.3369C16.9308 15.3537 13.2823 15.8539 10.7291 18.4543ZM13.8674 24.5849C12.5514 24.5849 11.4849 23.4987 11.4849 22.1584C11.4849 20.818 12.5514 19.7318 13.8674 19.7318C15.1834 19.7318 16.2499 20.818 16.2499 22.1584C16.2499 23.4987 15.1834 24.5849 13.8674 24.5849Z" fill="#080029"/>
<path d="M36.3389 17.3369C34.3908 19.3206 34.8828 23.0364 37.436 25.6368C39.9891 28.2375 43.638 28.7377 45.5853 26.7541C47.5334 24.7709 47.0414 21.055 44.4882 18.4543C41.935 15.8539 38.2857 15.3537 36.3389 17.3369ZM41.3499 24.5849C40.0339 24.5849 38.9674 23.4987 38.9674 22.1584C38.9674 20.818 40.0339 19.7318 41.3499 19.7318C42.666 19.7318 43.7325 20.818 43.7325 22.1584C43.7325 23.4987 42.6655 24.5849 41.3499 24.5849Z" fill="#080029"/>
<path d="M30.1005 27.5889C30.7029 27.4598 31.155 26.9167 31.155 26.2644C31.155 25.5163 30.5597 24.91 29.8252 24.91H25.3926C24.6581 24.91 24.0628 25.5163 24.0628 26.2644C24.0628 26.9163 24.515 27.4594 25.1169 27.5889L22.9596 29.7861C22.4401 30.3147 22.4401 31.1725 22.9596 31.7011C23.2193 31.9657 23.5597 32.098 23.8997 32.098C24.2397 32.098 24.5801 31.9657 24.8399 31.7011L27.6085 28.8814L30.3771 31.7011C30.6368 31.9657 30.9773 32.098 31.3172 32.098C31.6572 32.098 31.9976 31.9657 32.2574 31.7011C32.7769 31.1725 32.7769 30.3147 32.2574 29.7861L30.1005 27.5889Z" fill="#080029"/>
</g>
<defs>
<clipPath id="clip0">
<rect width="53.5652" height="41.6854" fill="white" transform="translate(0.82605 0.24719)"/>
</clipPath>
</defs>
</svg>
