<svg width="47" height="56" viewBox="0 0 47 56" fill="none" xmlns="http://www.w3.org/2000/svg">
<path d="M46.9093 19.4339C46.9093 14.9144 44.0483 10.0384 39.0591 6.05605C34.323 2.2755 28.5066 0.0186424 23.4997 0.0186424C13.4945 0.0186424 0.0900879 9.61789 0.0900879 19.4344C0.0900879 22.5294 4.41807 28.4763 5.33773 29.7042C7.45166 32.7824 10.2969 38.1926 9.7234 40.0872C8.10482 45.4285 8.10005 49.5053 9.70862 52.2034C11.0221 54.4073 12.9172 54.8312 13.1289 54.8721C13.218 54.8895 13.3076 54.8982 13.3982 54.8982H33.6007C33.6837 54.8982 33.7666 54.8909 33.8482 54.8765C34.0603 54.8389 35.9602 54.4453 37.2837 52.2646C38.9123 49.5819 38.9094 45.4849 37.276 40.0877C36.6973 38.1752 39.4872 32.8739 41.6617 29.7032C42.5823 28.4739 46.9093 22.5285 46.9093 19.4339ZM39.3299 28.0302C38.3216 29.4951 33.3523 37.0042 34.5409 40.9321C36.2358 46.5316 35.6698 49.3165 34.8965 50.6667C34.3573 51.608 33.6646 51.9211 33.4148 52.0074H13.5889C13.3629 51.9235 12.695 51.6114 12.1587 50.7125C11.3534 49.3608 10.7513 46.5673 12.4581 40.9326C13.6481 37.0047 8.67788 29.4951 7.66954 28.0302C7.65858 28.0138 7.64666 27.9979 7.63521 27.982C5.68958 25.3884 2.95014 21.0217 2.95014 19.4339C2.95014 11.4552 15.0106 2.90848 23.4992 2.90848C32.9099 2.90848 44.0483 11.8661 44.0483 19.4339C44.0483 21.0192 41.3089 25.3865 39.3633 27.982C39.3523 27.9974 39.3404 28.0138 39.3299 28.0302Z" fill="#080029"/>
<path d="M21.6137 45.0505H18.7532V48.9597H21.6137V45.0505Z" fill="#080029"/>
<path d="M28.2463 45.0505H25.3857V48.9597H28.2463V45.0505Z" fill="#080029"/>
<path d="M26.816 30.3415H20.1833V33.2318H26.816V30.3415Z" fill="#080029"/>
<path d="M26.816 36.2057H20.1833V39.0961H26.816V36.2057Z" fill="#080029"/>
<path d="M8.81929 20.3842L14.4814 26.1053L16.5041 24.0615L10.842 18.3404L8.81929 20.3842Z" fill="#080029"/>
<path d="M30.4979 24.0608L32.5203 26.1048L38.1832 20.3845L36.1608 18.3405L30.4979 24.0608Z" fill="#080029"/>
<path d="M29.9955 14.2113H17.0039V17.1016H29.9955V14.2113Z" fill="#080029"/>
<path d="M29.9955 8.43064H17.0039V11.321H29.9955V8.43064Z" fill="#080029"/>

</svg>
