<svg width="56" height="64" viewBox="0 0 56 64" fill="none" xmlns="http://www.w3.org/2000/svg">
<path d="M55.7921 38.7382C55.5624 34.7025 54.4984 26.6994 53.1756 22.7872C50.3233 14.3443 41.8159 0.0558319 28.0213 0.0558319C14.2287 0.0558319 5.71979 14.3443 2.8669 22.7872C1.54312 26.7031 0.479638 34.7046 0.250971 38.7387C-0.096436 44.8687 2.18608 50.8502 6.67853 55.5815C11.7253 60.8966 18.8108 63.9449 26.1188 63.9449H29.9248C37.2317 63.9449 44.3173 60.8966 49.364 55.5815C53.8565 50.8496 56.1395 44.8687 55.7921 38.7382ZM47.1028 53.454C42.7062 58.0837 36.2849 60.8476 29.9242 60.8476H26.1183C19.7576 60.8476 13.3353 58.0837 8.93927 53.4535C5.04053 49.3477 3.05823 44.1838 3.3569 38.9126C3.58142 34.9658 4.62519 27.2966 5.81571 23.7735C8.22631 16.6411 15.9693 3.15209 28.0218 3.15209C40.0763 3.15209 47.8178 16.6411 50.2273 23.774C51.4173 27.2935 52.4622 34.9637 52.6867 38.9126C52.9848 44.1838 51.002 49.3482 47.1028 53.454Z" fill="#0F0049"/>
<path d="M36.3461 19.0374C33.2801 19.0374 30.3743 20.064 28.0212 21.9551C25.6682 20.064 22.7624 19.0374 19.6959 19.0374C12.3677 19.0374 6.40576 24.9719 6.40576 32.2663C6.40576 37.1159 9.01443 41.4715 13.1802 43.7915C12.7488 44.7644 12.5258 45.7838 12.5258 46.8057C12.5258 52.6225 19.3319 57.1783 28.0212 57.1783C36.7106 57.1783 43.5161 52.6225 43.5161 46.8057C43.5161 45.7838 43.2926 44.7639 42.8618 43.7915C47.0275 41.4715 49.6357 37.1154 49.6357 32.2663C49.6362 24.9719 43.6743 19.0374 36.3461 19.0374ZM40.1064 41.6749L38.2475 42.4114L39.4229 44.0232C40.0747 44.9167 40.4055 45.8529 40.4055 46.8057C40.4055 50.75 34.734 54.0816 28.0218 54.0816C21.309 54.0816 15.6375 50.75 15.6375 46.8057C15.6375 45.8534 15.9683 44.9177 16.6206 44.0232L17.7961 42.4114L15.9377 41.6749C12.0379 40.1296 9.51843 36.4361 9.51843 32.2663C9.51843 26.6798 14.0845 22.1342 19.6975 22.1342C22.428 22.1342 24.9926 23.1979 26.9189 25.1288L28.0228 26.2359L29.1267 25.1288C31.053 23.1979 33.6171 22.1342 36.3476 22.1342C41.9601 22.1342 46.5267 26.6798 46.5267 32.2663C46.5251 36.4361 44.0056 40.1296 40.1064 41.6749Z" fill="#0F0049"/>
<path d="M18.6874 33.7939C20.2267 33.7939 21.4745 32.5518 21.4745 31.0197C21.4745 29.4875 20.2267 28.2455 18.6874 28.2455C17.1482 28.2455 15.9004 29.4875 15.9004 31.0197C15.9004 32.5518 17.1482 33.7939 18.6874 33.7939Z" fill="#0F0049"/>
<path d="M37.355 33.7939C38.8943 33.7939 40.1421 32.5518 40.1421 31.0197C40.1421 29.4875 38.8943 28.2455 37.355 28.2455C35.8158 28.2455 34.568 29.4875 34.568 31.0197C34.568 32.5518 35.8158 33.7939 37.355 33.7939Z" fill="#0F0049"/>
<path d="M26.8604 39.3564H23.7493V43.5314H26.8604V39.3564Z" fill="#0F0049"/>
<path d="M32.2932 39.3564H29.1821V43.5314H32.2932V39.3564Z" fill="#0F0049"/>
</svg>
