<svg width="46" height="58" viewBox="0 0 46 58" fill="none" xmlns="http://www.w3.org/2000/svg">
<g clip-path="url(#clip0)">
<path d="M44.8197 50.6049L41.5258 20.3994C41.4741 9.62138 33.0116 0.870018 22.6173 0.870018C12.2229 0.870018 3.76044 9.62195 3.70923 20.3994L0.41479 50.6049C0.359717 51.1103 0.523283 51.6151 0.861979 51.9827C1.20067 52.3508 1.68036 52.5469 2.1672 52.5092C2.20134 52.5069 5.57012 52.2748 8.60407 52.2748C10.7425 52.2748 11.8054 52.3892 12.3209 52.4858C14.9016 52.9671 19.9391 56.3607 21.6623 57.6281C21.9487 57.8379 22.283 57.9436 22.6173 57.9436C22.9521 57.9436 23.288 57.8373 23.5744 57.6258C25.2437 56.3938 30.1302 53.0843 32.6597 52.5767C33.2418 52.46 34.4733 52.3211 37.0369 52.3211C39.986 52.3211 43.0491 52.5081 43.0794 52.5104C43.5635 52.5338 44.0405 52.3451 44.3764 51.9781C44.7123 51.6111 44.8748 51.108 44.8197 50.6049ZM37.0369 48.891C34.7365 48.891 33.1003 48.9951 32.0324 49.2094C29.0695 49.804 24.6043 52.7527 22.6151 54.1459C20.5785 52.7247 15.9469 49.6777 12.9047 49.1094C11.9492 48.931 10.5421 48.8447 8.60297 48.8447C6.93097 48.8447 5.19673 48.9099 3.91685 48.9733L7.00201 20.6915C7.00917 20.6275 7.01247 20.5629 7.01247 20.4988C7.01247 11.5668 14.0122 4.3007 22.6167 4.3007C31.2207 4.3007 38.2209 11.5668 38.2209 20.4988C38.2209 20.5634 38.2248 20.628 38.2314 20.6915L41.3177 48.9888C40.1479 48.9396 38.591 48.891 37.0369 48.891Z" fill="#080029"/>
<path d="M12.7043 22.6163C14.3391 22.6163 15.6644 21.2406 15.6644 19.5435C15.6644 17.8464 14.3391 16.4707 12.7043 16.4707C11.0694 16.4707 9.74414 17.8464 9.74414 19.5435C9.74414 21.2406 11.0694 22.6163 12.7043 22.6163Z" fill="#080029"/>
<path d="M32.5302 22.6163C34.1651 22.6163 35.4904 21.2406 35.4904 19.5435C35.4904 17.8464 34.1651 16.4707 32.5302 16.4707C30.8954 16.4707 29.5701 17.8464 29.5701 19.5435C29.5701 21.2406 30.8954 22.6163 32.5302 22.6163Z" fill="#080029"/>
<path d="M22.6174 43.7923L29.9905 23.9725H15.2432L22.6174 43.7923ZM22.6174 34.2714L20.062 27.4026H25.1727L22.6174 34.2714Z" fill="#080029"/>
</g>
<defs>
<clipPath id="clip0">
<rect width="45.1594" height="57.1685" fill="white" transform="translate(0.0144043 0.822586)"/>
</clipPath>
</defs>
</svg>
