<svg width="31" height="24" viewBox="0 0 31 24" fill="none" xmlns="http://www.w3.org/2000/svg">
<g clip-path="url(#clip0)">
<path d="M29.6708 1.63982C28.893 0.871891 27.8629 0.449016 26.7703 0.449016C25.6566 0.449016 24.6128 0.88597 23.8306 1.67924L22.9467 2.57593C20.6805 1.08486 18.1552 0.300293 15.6035 0.300293C13.0517 0.300293 10.5264 1.08486 8.26043 2.57593L7.37621 1.67924C6.59405 0.88597 5.54996 0.449272 4.43656 0.449272C3.34414 0.449272 2.31412 0.872147 1.53631 1.64034C-0.0840426 3.24071 -0.101436 5.86243 1.49743 7.48456L2.80189 8.80771C1.98647 10.511 1.55779 12.2718 1.55779 13.9316C1.55779 19.8129 6.93986 23.4665 15.6038 23.4665C24.2675 23.4665 29.6496 19.8129 29.6496 13.9316C29.6496 12.2721 29.2206 10.5115 28.4049 8.80771L29.7099 7.48456C31.3085 5.86243 31.2911 3.24071 29.6708 1.63982ZM28.6167 6.40561L26.9253 8.12117C26.6902 8.35975 26.6368 8.72298 26.793 9.01914C27.6576 10.6574 28.1144 12.3561 28.1144 13.9314C28.1144 19.8291 21.6514 21.9304 15.6033 21.9304C9.55492 21.9304 3.09194 19.8291 3.09194 13.9314C3.09194 12.3558 3.54876 10.6569 4.41303 9.01914C4.56931 8.72298 4.5156 8.35949 4.2808 8.12117L2.5896 6.40561C1.5849 5.38631 1.5959 3.73884 2.6139 2.73336C3.10269 2.25084 3.7498 1.98488 4.43631 1.98488C5.13612 1.98488 5.79218 2.25955 6.28379 2.75793L7.61971 4.11282C7.88546 4.38237 8.30775 4.41744 8.61469 4.19627C10.7535 2.65221 13.1701 1.83616 15.6035 1.83616C18.0365 1.83616 20.4531 2.65221 22.5921 4.19627C22.8988 4.41769 23.3216 4.38237 23.5874 4.11282L24.9233 2.75793C25.4146 2.25955 26.0707 1.98488 26.7705 1.98488C27.4573 1.98488 28.1044 2.25084 28.5929 2.7331C29.6109 3.7391 29.6217 5.38631 28.6167 6.40561Z" fill="#0F0049"/>
<path d="M5.8632 10.3587C4.38967 11.8334 4.10627 13.9403 5.23015 15.0648C6.35378 16.1898 8.45908 15.906 9.93262 14.4313C11.4059 12.9569 11.6893 10.8499 10.5657 9.72514C9.44178 8.60063 7.33648 8.88425 5.8632 10.3587ZM7.6741 13.8349C6.9147 13.8349 6.2993 13.219 6.2993 12.459C6.2993 11.699 6.9147 11.0831 7.6741 11.0831C8.43351 11.0831 9.04891 11.699 9.04891 12.459C9.04891 13.219 8.43351 13.8349 7.6741 13.8349Z" fill="#0F0049"/>
<path d="M20.6413 9.72514C19.5172 10.8499 19.8011 12.9569 21.2744 14.4313C22.7476 15.906 24.8532 16.1896 25.9768 15.0648C27.101 13.9403 26.817 11.8334 25.3438 10.3587C23.8705 8.88425 21.7647 8.60063 20.6413 9.72514ZM23.5329 13.8349C22.7735 13.8349 22.1581 13.219 22.1581 12.459C22.1581 11.699 22.7735 11.0831 23.5329 11.0831C24.2923 11.0831 24.9077 11.699 24.9077 12.459C24.9077 13.219 24.292 13.8349 23.5329 13.8349Z" fill="#0F0049"/>
<path d="M17.0412 15.5385C17.3888 15.4653 17.6497 15.1574 17.6497 14.7875C17.6497 14.3633 17.3062 14.0195 16.8824 14.0195H14.3246C13.9008 14.0195 13.5573 14.3633 13.5573 14.7875C13.5573 15.1571 13.8182 15.465 14.1655 15.5385L12.9206 16.7843C12.6209 17.0841 12.6209 17.5705 12.9206 17.8702C13.0705 18.0202 13.267 18.0952 13.4631 18.0952C13.6593 18.0952 13.8558 18.0202 14.0056 17.8702L15.6032 16.2714L17.2008 17.8702C17.3507 18.0202 17.5471 18.0952 17.7433 18.0952C17.9395 18.0952 18.1359 18.0202 18.2858 17.8702C18.5856 17.5705 18.5856 17.0841 18.2858 16.7843L17.0412 15.5385Z" fill="#0F0049"/>
</g>
<defs>
<clipPath id="clip0">
<rect width="30.7018" height="23.6842" fill="white" transform="translate(0.148926 0.0351562)"/>
</clipPath>
</defs>
</svg>
