<svg width="29" height="31" viewBox="0 0 29 31" fill="none" xmlns="http://www.w3.org/2000/svg">
<g clip-path="url(#clip0)">
<path d="M27.9899 18.7087C27.878 16.7596 27.3598 12.8945 26.7157 11.0051C25.3265 6.92756 21.1833 0.0268555 14.4651 0.0268555C7.74797 0.0268555 3.60403 6.92756 2.21464 11.0051C1.56994 12.8963 1.05201 16.7606 0.94065 18.7089C0.771458 21.6695 1.88307 24.5582 4.07095 26.8432C6.52878 29.4102 9.97954 30.8824 13.5386 30.8824H15.3922C18.9508 30.8824 22.4015 29.4102 24.8593 26.8432C27.0472 24.558 28.1591 21.6695 27.9899 18.7087ZM23.7581 25.8158C21.6169 28.0517 18.4896 29.3865 15.3919 29.3865H13.5384C10.4407 29.3865 7.31287 28.0517 5.17196 25.8155C3.27323 23.8326 2.30782 21.3387 2.45328 18.7929C2.56262 16.8868 3.07095 13.1829 3.65075 11.4814C4.82474 8.0368 8.5957 1.52221 14.4654 1.52221C20.3361 1.52221 24.1063 8.0368 25.2798 11.4817C25.8593 13.1814 26.3682 16.8858 26.4775 18.7929C26.6227 21.3387 25.6571 23.8328 23.7581 25.8158Z" fill="#0F0049"/>
<path d="M18.5193 9.19434C17.0261 9.19434 15.611 9.69013 14.465 10.6034C13.319 9.69013 11.9039 9.19434 10.4105 9.19434C6.84152 9.19434 3.93799 12.0604 3.93799 15.5833C3.93799 17.9254 5.20844 20.029 7.23723 21.1494C7.02713 21.6193 6.91854 22.1116 6.91854 22.6051C6.91854 25.4144 10.2332 27.6147 14.465 27.6147C18.6968 27.6147 22.0112 25.4144 22.0112 22.6051C22.0112 22.1116 21.9024 21.619 21.6925 21.1494C23.7213 20.029 24.9915 17.9252 24.9915 15.5833C24.9918 12.0604 22.0882 9.19434 18.5193 9.19434ZM20.3506 20.1272L19.4453 20.4829L20.0178 21.2613C20.3352 21.6928 20.4963 22.145 20.4963 22.6051C20.4963 24.51 17.7342 26.1191 14.4653 26.1191C11.1961 26.1191 8.43395 24.51 8.43395 22.6051C8.43395 22.1452 8.59506 21.6933 8.91274 21.2613L9.48521 20.4829L8.58016 20.1272C6.68092 19.3809 5.4539 17.5971 5.4539 15.5833C5.4539 12.8852 7.67763 10.6899 10.4112 10.6899C11.741 10.6899 12.99 11.2037 13.9281 12.1362L14.4658 12.6709L15.0034 12.1362C15.9415 11.2037 17.1903 10.6899 18.5201 10.6899C21.2534 10.6899 23.4774 12.8852 23.4774 15.5833C23.4766 17.5971 22.2496 19.3809 20.3506 20.1272Z" fill="#0F0049"/>
<path d="M9.91934 16.3207C10.669 16.3207 11.2767 15.7209 11.2767 14.9809C11.2767 14.241 10.669 13.6411 9.91934 13.6411C9.16971 13.6411 8.56201 14.241 8.56201 14.9809C8.56201 15.7209 9.16971 16.3207 9.91934 16.3207Z" fill="#0F0049"/>
<path d="M19.0106 16.3207C19.7603 16.3207 20.368 15.7209 20.368 14.9809C20.368 14.241 19.7603 13.6411 19.0106 13.6411C18.261 13.6411 17.6533 14.241 17.6533 14.9809C17.6533 15.7209 18.261 16.3207 19.0106 16.3207Z" fill="#0F0049"/>
<path d="M13.8994 19.0073H12.3843V21.0236H13.8994V19.0073Z" fill="#0F0049"/>
<path d="M16.5454 19.0073H15.0303V21.0236H16.5454V19.0073Z" fill="#0F0049"/>
</g>
<defs>
<clipPath id="clip0">
<rect width="27.2727" height="30.9091" fill="white" transform="translate(0.818359)"/>
</clipPath>
</defs>
</svg>
