<svg width="27" height="32" viewBox="0 0 27 32" fill="none" xmlns="http://www.w3.org/2000/svg">
<g clip-path="url(#clip0)">
<path d="M26.1316 11.1325C26.1316 8.56458 24.5821 5.79414 21.88 3.53142C19.315 1.38338 16.1649 0.101074 13.4532 0.101074C8.03456 0.101074 0.774902 5.55519 0.774902 11.1327C0.774902 12.8913 3.11888 16.2702 3.61695 16.9679C4.76183 18.7168 6.30279 21.7908 5.99217 22.8673C5.11557 25.9021 5.11299 28.2185 5.98417 29.7515C6.69552 31.0037 7.72188 31.2446 7.83652 31.2678C7.8848 31.2777 7.93335 31.2826 7.98241 31.2826H18.9238C18.9687 31.2826 19.0136 31.2785 19.0578 31.2703C19.1727 31.249 20.2016 31.0253 20.9184 29.7863C21.8004 28.262 21.7989 25.9342 20.9143 22.8676C20.6008 21.781 22.1118 18.7688 23.2895 16.9673C23.7881 16.2688 26.1316 12.8908 26.1316 11.1325ZM22.0266 16.0167C21.4805 16.8491 18.7893 21.1156 19.433 23.3474C20.3509 26.5289 20.0444 28.1112 19.6256 28.8784C19.3336 29.4132 18.9584 29.5911 18.8231 29.6401H8.08569C7.9633 29.5925 7.60155 29.4151 7.31107 28.9044C6.87497 28.1364 6.54886 26.5492 7.47323 23.3476C8.1177 21.1159 5.42593 16.8491 4.87983 16.0167C4.87389 16.0074 4.86743 15.9984 4.86124 15.9894C3.80751 14.5157 2.32387 12.0346 2.32387 11.1325C2.32387 6.5991 8.85565 1.74303 13.453 1.74303C18.5497 1.74303 24.5821 6.83257 24.5821 11.1325C24.5821 12.0332 23.0984 14.5146 22.0447 15.9894C22.0388 15.9981 22.0323 16.0074 22.0266 16.0167Z" fill="#0F0049"/>
<path d="M12.4325 25.6875H10.8833V27.9086H12.4325V25.6875Z" fill="#0F0049"/>
<path d="M16.0248 25.6875H14.4756V27.9086H16.0248V25.6875Z" fill="#0F0049"/>
<path d="M15.2503 17.3301H11.6582V18.9723H15.2503V17.3301Z" fill="#0F0049"/>
<path d="M15.2503 20.6621H11.6582V22.3043H15.2503V20.6621Z" fill="#0F0049"/>
<path d="M5.50328 11.6727L8.56982 14.9233L9.66528 13.7621L6.59873 10.5115L5.50328 11.6727Z" fill="#0F0049"/>
<path d="M17.2441 13.762L18.3394 14.9233L21.4063 11.6732L20.311 10.5118L17.2441 13.762Z" fill="#0F0049"/>
<path d="M16.9721 8.16553H9.93604V9.80776H16.9721V8.16553Z" fill="#0F0049"/>
<path d="M16.9721 4.88086H9.93604V6.52309H16.9721V4.88086Z" fill="#0F0049"/>
</g>
<defs>
<clipPath id="clip0">
<rect width="25.4545" height="31.8182" fill="white" transform="translate(0.727051 0.0908203)"/>
</clipPath>
</defs>
</svg>
