<svg width="24" height="30" viewBox="0 0 24 30" fill="none" xmlns="http://www.w3.org/2000/svg">
<g clip-path="url(#clip0)">
<path d="M23.5873 26.124L21.8633 10.2732C21.8362 4.6173 17.407 0.0249023 11.9666 0.0249023C6.52616 0.0249023 2.09693 4.6176 2.07013 10.2732L0.345824 26.124C0.316999 26.3892 0.402609 26.6541 0.579882 26.847C0.757155 27.0402 1.00822 27.1431 1.26303 27.1233C1.2809 27.1221 3.04412 27.0003 4.63208 27.0003C5.75135 27.0003 6.30767 27.0603 6.57747 27.111C7.9282 27.3636 10.5648 29.1444 11.4667 29.8095C11.6166 29.9196 11.7916 29.9751 11.9666 29.9751C12.1418 29.9751 12.3176 29.9193 12.4675 29.8083C13.3412 29.1618 15.8988 27.4251 17.2228 27.1587C17.5274 27.0975 18.172 27.0246 19.5138 27.0246C21.0573 27.0246 22.6606 27.1227 22.6764 27.1239C22.9298 27.1362 23.1794 27.0372 23.3553 26.8446C23.5311 26.652 23.6161 26.388 23.5873 26.124ZM19.5138 25.2246C18.3098 25.2246 17.4534 25.2792 16.8945 25.3917C15.3437 25.7037 13.0066 27.2511 11.9654 27.9822C10.8995 27.2364 8.47529 25.6374 6.88301 25.3392C6.3829 25.2456 5.64642 25.2003 4.6315 25.2003C3.75638 25.2003 2.84868 25.2345 2.1788 25.2678L3.79356 10.4265C3.79731 10.3929 3.79904 10.359 3.79904 10.3254C3.79904 5.6382 7.46268 1.8252 11.9663 1.8252C16.4696 1.8252 20.1335 5.6382 20.1335 10.3254C20.1335 10.3593 20.1355 10.3932 20.139 10.4265L21.7543 25.2759C21.1421 25.2501 20.3272 25.2246 19.5138 25.2246Z" fill="#0F0049"/>
<path d="M6.77785 11.4364C7.63352 11.4364 8.32718 10.7145 8.32718 9.82393C8.32718 8.93337 7.63352 8.21143 6.77785 8.21143C5.92218 8.21143 5.22852 8.93337 5.22852 9.82393C5.22852 10.7145 5.92218 11.4364 6.77785 11.4364Z" fill="#0F0049"/>
<path d="M17.1548 11.4364C18.0105 11.4364 18.7041 10.7145 18.7041 9.82393C18.7041 8.93337 18.0105 8.21143 17.1548 8.21143C16.2991 8.21143 15.6055 8.93337 15.6055 9.82393C15.6055 10.7145 16.2991 11.4364 17.1548 11.4364Z" fill="#0F0049"/>
<path d="M11.9666 22.5491L15.8256 12.1484H8.10693L11.9666 22.5491ZM11.9666 17.5529L10.6291 13.9484H13.304L11.9666 17.5529Z" fill="#0F0049"/>
</g>
<defs>
<clipPath id="clip0">
<rect width="23.6364" height="30" fill="white" transform="translate(0.13623)"/>
</clipPath>
</defs>
</svg>
