<svg width="51" height="66" viewBox="0 0 51 66" fill="none" xmlns="http://www.w3.org/2000/svg">
<path d="M50 25.6667C50 28.9547 48.5058 33.0663 46.1349 37.4754C43.7796 41.8554 40.6272 46.4067 37.4565 50.5405C34.2887 54.6705 31.1184 58.3634 28.7389 61.0248C27.5496 62.3549 26.559 63.4262 25.8665 64.164C25.733 64.3063 25.6106 64.4361 25.5 64.553C25.3894 64.4361 25.267 64.3063 25.1335 64.164C24.441 63.4262 23.4504 62.3549 22.2611 61.0248C19.8816 58.3634 16.7113 54.6705 13.5435 50.5405C10.3728 46.4067 7.22041 41.8554 4.86511 37.4754C2.49422 33.0663 1 28.9547 1 25.6667C1 12.0375 11.9752 1 25.5 1C39.0248 1 50 12.0375 50 25.6667Z" fill="#FCFCFC" stroke="#609FFF" stroke-width="2"/>
</svg>
